<?xml version="1.0" standalone="no"?>
<!DOCTYPE svg PUBLIC "-//W3C//DTD SVG 20010904//EN"
 "http://www.w3.org/TR/2001/REC-SVG-20010904/DTD/svg10.dtd">
<svg version="1.0" xmlns="http://www.w3.org/2000/svg"
 width="256.000000pt" height="256.000000pt" viewBox="0 0 256.000000 256.000000"
 preserveAspectRatio="xMidYMid meet">

<g transform="translate(0.000000,256.000000) scale(0.100000,-0.100000)"
fill="#000000" stroke="none">
<path d="M1703 1480 c-76 -16 -131 -57 -149 -113 -6 -19 -8 -17 -18 13 -25 76
-105 100 -331 100 l-155 0 0 -170 0 -170 174 0 c222 0 278 17 311 94 l13 29
17 -37 c11 -23 34 -46 64 -64 42 -25 55 -27 151 -27 77 0 113 4 136 16 29 15
32 15 43 -2 6 -11 22 -19 36 -19 25 0 25 1 25 90 l0 90 -95 0 -95 0 0 -29 c0
-25 5 -30 28 -33 l27 -4 -28 -12 c-52 -22 -105 -15 -138 17 -61 62 -23 141 69
141 32 0 54 -5 62 -15 9 -11 33 -15 91 -15 44 0 79 3 79 6 0 14 -34 60 -55 76
-52 39 -170 56 -262 38z m-328 -115 c34 -33 34 -83 -1 -116 -21 -20 -38 -24
-100 -27 l-74 -4 0 86 0 86 75 0 c67 0 79 -3 100 -25z"/>
<path d="M120 1310 l0 -170 70 0 70 0 0 65 0 65 90 0 90 0 0 -65 0 -65 75 0
75 0 0 170 0 170 -75 0 -75 0 0 -70 0 -70 -90 0 -90 0 0 70 0 70 -70 0 -70 0
0 -170z"/>
<path d="M620 1310 l0 -170 210 0 210 0 0 40 0 40 -135 0 -135 0 0 25 0 25
105 0 105 0 0 35 0 35 -105 0 -105 0 0 25 0 25 125 0 125 0 0 45 0 45 -200 0
-200 0 0 -170z"/>
<path d="M2050 1310 l0 -170 205 0 205 0 0 40 0 40 -135 0 -135 0 0 25 0 25
105 0 105 0 0 35 0 35 -105 0 -105 0 0 25 0 25 125 0 125 0 0 45 0 45 -195 0
-195 0 0 -170z"/>
</g>
</svg>
